<svg xmlns="http://www.w3.org/2000/svg" xmlns:xlink="http://www.w3.org/1999/xlink" viewBox="0 0 491.71 100.58"><defs><style>.cls-1{fill:url(#未命名的渐变_6);}.cls-2{fill:url(#未命名的渐变_4);}.cls-3{fill:url(#未命名的渐变_5);}.cls-4{fill:#808285;}</style><linearGradient id="未命名的渐变_6" x1="5.3" y1="71.04" x2="101.25" y2="28.01" gradientUnits="userSpaceOnUse"><stop offset="0.31" stop-color="#0071bc"/><stop offset="0.63" stop-color="#22b573"/></linearGradient><linearGradient id="未命名的渐变_4" x1="9.28" y1="94.06" x2="39.28" y2="75.03" gradientUnits="userSpaceOnUse"><stop offset="0" stop-color="#2e3192"/><stop offset="1" stop-color="#29abe2"/></linearGradient><linearGradient id="未命名的渐变_5" x1="66.63" y1="25" x2="98.69" y2="0.85" gradientUnits="userSpaceOnUse"><stop offset="0" stop-color="#00a99d"/><stop offset="1" stop-color="#8cc63f"/></linearGradient></defs><g id="图层_2" data-name="图层 2"><g id="图层_1-2" data-name="图层 1"><path class="cls-1" d="M55.78,51.65A84.63,84.63,0,0,1,39.22,35.89h8.9c.75-2,1.5-3.94,2.25-5.82H35.16a54.47,54.47,0,0,1-3.56-6.79H53.2c.88-2,1.75-4,2.61-5.82H29.49a42.94,42.94,0,0,1-1.41-6.79H59.2c1.18-2.21,2.31-4.14,3.37-5.74V4.85H27.8A24,24,0,0,1,28.37,0H0S11.88,32.25,42,51.9A77.87,77.87,0,0,1,56.67,64.26H54.93q-1.14,3-2.27,5.82h8.83a70.14,70.14,0,0,1,4.45,6.79H49.82c-.89,2-1.77,4-2.64,5.82H68.91a65.87,65.87,0,0,1,2.61,6.79H43.76a66.54,66.54,0,0,1-3.49,5.82H73.06a35,35,0,0,1,.66,4.37h31.44S90.21,77.12,55.78,51.65Z"/><path class="cls-2" d="M0,99.79H29.2a17.26,17.26,0,0,1-5.8-6.3c-4-7.62,4.7-25.66,12.13-34.44C25.79,70.16,9.73,88.68,0,99.79Z"/><path class="cls-3" d="M65.11,46C77.36,32,93,14,105.25,0L73.36.12a10.75,10.75,0,0,1,2.91,2.43C86,14.21,66.55,43.8,65.11,46Z"/><path class="cls-4" d="M161.38,18.42V40.07h40.69V57.7H161.38v24h43.73V99.31H136.56V.79H204V18.42Z"/><path class="cls-4" d="M268.23,29.28h21.43L258.14,99.74H243.82L212.65,29.28h23.28l15.72,38.37Z"/><path class="cls-4" d="M370.27,64.19a36.6,36.6,0,0,1-4.93,19.22A33.07,33.07,0,0,1,351.48,96.1,45,45,0,0,1,331,100.58q-12.4,0-21.23-4.83a33,33,0,0,1-13.36-13,37.35,37.35,0,0,1-4.55-18.38,37.75,37.75,0,0,1,4.62-18.76A32.36,32.36,0,0,1,310,32.63q8.88-4.68,21.15-4.69t20.95,4.62a32.46,32.46,0,0,1,13.5,12.87A37.27,37.27,0,0,1,370.27,64.19Zm-55.78,0q0,9.11,4.48,14.39t12.16,5.29a15,15,0,0,0,12.1-5.36q4.47-5.36,4.48-14.32,0-9.24-4.62-14.35a15.69,15.69,0,0,0-12.24-5.11q-7.55,0-12,5.18T314.49,64.19Z"/><path class="cls-4" d="M414.56,6.86q9.94,12.41,18.62,23.55Q440.59,20.18,456.45.79h30.89L449.12,48.18l42.59,51.13H460.05L433.18,66.66Q427,74.91,407.09,99.31H375.84l41.75-51.13L378.17.79h31.46Z"/></g></g></svg>