<?xml version="1.0" encoding="UTF-8"?>
<!DOCTYPE svg PUBLIC "-//W3C//DTD SVG 1.1//EN" "http://www.w3.org/Graphics/SVG/1.1/DTD/svg11.dtd">
<!-- Creator: CorelDRAW -->
<svg xmlns="http://www.w3.org/2000/svg" xml:space="preserve" width="7500mm" height="2500mm" version="1.1" style="shape-rendering:geometricPrecision; text-rendering:geometricPrecision; image-rendering:optimizeQuality; fill-rule:evenodd; clip-rule:evenodd"
viewBox="0 0 205634.99 68545"
 xmlns:xlink="http://www.w3.org/1999/xlink"
 xmlns:xodm="http://www.corel.com/coreldraw/odm/2003">
 <defs>
  <style type="text/css">
   <![CDATA[
    .fil2 {fill:none}
    .fil0 {fill:#373435}
    .fil1 {fill:#C8383C}
    .fil5 {fill:url(#id0)}
    .fil3 {fill:url(#id1)}
    .fil4 {fill:url(#id2)}
   ]]>
  </style>
  <linearGradient id="id0" gradientUnits="userSpaceOnUse" x1="115127.37" y1="50650.56" x2="115127.37" y2="17894.64">
   <stop offset="0" style="stop-opacity:0.917647; stop-color:#373435"/>
   <stop offset="0.309804" style="stop-opacity:0.835294; stop-color:#373535"/>
   <stop offset="0.560784" style="stop-opacity:0.74902; stop-color:#373636"/>
   <stop offset="0.788235" style="stop-opacity:0.87451; stop-color:#302F30"/>
   <stop offset="1" style="stop-opacity:1; stop-color:#282829"/>
  </linearGradient>
  <linearGradient id="id1" gradientUnits="userSpaceOnUse" xlink:href="#id0" x1="34534.36" y1="50650.56" x2="34534.36" y2="17894.64">
  </linearGradient>
  <linearGradient id="id2" gradientUnits="userSpaceOnUse" xlink:href="#id0" x1="72684.18" y1="50650.56" x2="72684.18" y2="17894.64">
  </linearGradient>
 </defs>
 <g id="圖層_x0020_1">
  <metadata id="CorelCorpID_0Corel-Layer"/>
  <g id="_2263634495456">
   <path class="fil0" d="M153441.54 45431.63l407.03 -452.05c78.67,-82.6 137.82,-167.49 123.76,-237.73 -14.07,-70.22 -101.34,-125.8 -205.74,-171.73l-4973.15 -2356.59c-99.99,-50.9 -205.19,-86.56 -299.48,-67.68 -94.27,18.88 -177.64,92.29 -250.31,177.77l-705.97 784.05c-77.79,81.35 -135.45,165.76 -119.64,232.86 15.81,67.09 105.1,116.89 211.01,154.96l5253.34 2067.88c101.71,43.58 210.24,72.04 306.71,49.31 96.46,-22.73 180.88,-96.64 252.45,-181.05z"/>
   <path class="fil0" d="M151910.57 47131.95l516.39 -573.51c77.13,-80.43 133.76,-164.52 117,-229.73 -16.77,-65.2 -106.94,-111.56 -213.3,-144.79l-5430.3 -1886.99c-102.43,-39.14 -212.76,-63.15 -310.47,-38.03 -97.71,25.13 -182.78,99.38 -253.63,183.06l-852.69 947c-75.79,78.57 -130.37,161.97 -112.12,223.92 18.25,61.93 109.32,102.44 215.6,127.36l5752.24 1559.99c103.07,31.52 216.16,47.72 315.83,18.37 99.67,-29.38 185.92,-104.29 255.44,-186.66z"/>
   <path class="fil0" d="M147317.68 52232.88l844.45 -937.87c70.26,-71.1 117.04,-151.19 95.74,-203.63 -21.3,-52.43 -110.69,-77.2 -210.62,-79.15l-6850.38 -451.97c-101.36,-10.31 -219.7,-3.43 -323.67,38.81 -103.97,42.25 -193.6,119.85 -259.03,197.96l-1292.84 1435.85c-67.81,67.97 -111.39,146.3 -89.5,195.49 21.89,49.18 109.27,69.21 205.15,64.28l7297.25 0c99.77,3.61 218.94,-11.02 323.85,-57.73 104.91,-46.72 195.53,-125.49 259.61,-202.04z"/>
   <path class="fil0" d="M164173.51 32836.15l-4067.39 -3011.53c-89.19,-69.59 -180.94,-123.19 -266.46,-114.61 -85.49,8.61 -164.75,79.42 -238.29,165.38l-567.69 630.48c-78,82.37 -139.96,168.23 -138.13,252.7 1.84,84.47 67.46,167.56 148.96,246.47l3532.06 3595.84c77.8,83.25 158.69,149.45 238.15,147.8 79.45,-1.65 157.52,-71.14 231.83,-157.52l1172.54 -1296.87c78.46,-82.56 139.4,-166.92 131.69,-244.45 -7.72,-77.51 -84.09,-148.2 -177.28,-213.69z"/>
   <path class="fil0" d="M166087.28 30773.67l-4669.42 -2420.1c-96.83,-53.65 -198.11,-92.24 -289.34,-75.65 -91.25,16.59 -172.45,88.35 -244.24,172.63l-516.38 573.51c-78.19,82.56 -138.52,166.77 -129.31,242.5 9.21,75.75 88,143.02 183.71,204.41l4216.87 2857.11c91.42,65.47 186.01,115.37 273.7,105.28 87.69,-10.09 168.48,-80.19 242.62,-164.72l1003.44 -1085.6c78.41,-80.28 137.92,-162.9 125.66,-232.94 -12.27,-70.03 -96.28,-127.52 -197.31,-176.42z"/>
   <path class="fil0" d="M163132.2 26423.33l5433.18 1807.7c99.01,36.52 208.92,58.62 308.37,35.61 99.46,-23.02 188.47,-91.17 261.36,-167.49l806.9 -792.1c77.23,-70.25 133.33,-147.86 117.8,-206.52 -15.52,-58.65 -102.69,-98.34 -204.54,-121.17l-5844.55 -1545.48c-101.07,-30.24 -212.16,-45.42 -310.06,-16.25 -97.87,29.16 -182.53,102.67 -250.57,183.31l-413.75 459.52c-75.39,78.52 -130.56,160.83 -113.83,224.17 16.74,63.32 105.35,107.65 209.69,138.7z"/>
   <path class="fil0" d="M148848.64 50532.57l735.09 -816.41c72.81,-74.47 123.07,-156.19 102.78,-212.51 -20.29,-56.29 -111.13,-87.17 -214.72,-98.07l-6370.51 -935.87c-102.63,-18.7 -219.34,-21.18 -321.85,15.77 -102.51,36.93 -190.8,113.33 -257.91,193.2l-1146.12 1272.91c-70.66,71.63 -117.97,152 -96.8,205 21.17,53 110.84,78.64 211.4,81.86l6692.2 520.27 84.03 6.54c101.59,11.52 219.74,6.02 323.52,-35.47 103.8,-41.46 193.21,-118.86 258.89,-197.21z"/>
   <path class="fil0" d="M178570.77 19975.48l-9417.21 -316.94c-98.67,-6.87 -215.16,3.61 -317.57,47.15 -102.41,43.54 -190.76,120.18 -254.26,196.01l-208.48 231.55c-68.45,69.16 -113.76,147.39 -92.75,198.22 21,50.81 108.32,74.21 205.65,74.83l8770.72 470.94c26.29,2.23 53.07,3.47 79.51,3.47 196.04,0 387.16,-63.26 544.59,-179.97l750.41 -518.83c68.36,-40.61 115.12,-100.12 102.74,-142.29 -12.38,-42.14 -83.89,-66.93 -163.35,-64.12z"/>
   <path class="fil0" d="M181344.16 18222.2l-10907.51 0c-97.81,-3.54 -214.65,10.82 -317.5,56.61 -102.85,45.79 -191.7,123.02 -254.51,198.08l-157.17 174.54c-67.08,67.38 -110.57,144.62 -89.21,193.6 21.34,48.97 107.54,69.66 202.55,66.38l10147.4 156.52c13.49,0.37 27.18,0.77 40.76,0.77 210.58,0 416.89,-61.06 593.41,-175.72l793.01 -490.52c63.93,-32.97 107.34,-86.62 96.48,-124.83 -10.87,-38.21 -75.99,-61.01 -147.71,-55.43z"/>
   <path class="fil1" d="M140239.44 18222.2l5684.79 0c195.62,-7.07 429.31,21.63 635.01,113.2 205.69,91.58 383.39,246.04 509.03,396.16l29940 33251.73c62.34,68.25 121.71,138.24 155.5,204.65 33.78,66.41 41.97,129.25 19.97,178.65 -21.99,49.38 -74.17,85.34 -146.12,104.69 -71.95,19.33 -163.71,22.03 -256.14,21.38l-5684.79 0c-195.64,7.07 -429.31,-21.62 -635.01,-113.2 -205.7,-91.58 -383.38,-246.04 -509.04,-396.16l-29939.98 -33251.73c-62.34,-68.25 -121.71,-138.24 -155.51,-204.66 -33.77,-66.4 -41.97,-129.23 -19.96,-178.64 21.99,-49.4 74.15,-85.35 146.12,-104.69 71.96,-19.33 163.69,-22.03 256.14,-21.37z"/>
   <path class="fil0" d="M150379.61 48832.26l625.74 -694.96c75.14,-77.65 128.75,-160.71 109.94,-221.28 -18.81,-60.56 -110.05,-98.61 -215.96,-120.01l-5896.61 -1413.95c-103.14,-28.33 -217.26,-41.17 -317.7,-9.97 -100.44,31.2 -187.19,106.46 -256.13,188.23l-999.41 1109.94c-73.36,75.24 -124.41,157.31 -104.43,214.56 20,57.25 111.05,89.69 215.31,102.86l6260.55 1046.7c102.85,20.81 219.05,25.6 321.14,-10.05 102.08,-35.66 190.03,-111.76 257.55,-192.07z"/>
   <path class="fil0" d="M158034.43 40330.71l78.97 -87.7c79.51,-83.98 142.74,-171.62 141.14,-258.04 -1.62,-86.42 -68.07,-171.64 -150.67,-252.6l-3660.79 -3772.7c-78.26,-78.71 -161.12,-178.75 -242.06,-177.22 -80.94,1.49 -159.99,104.55 -235.27,186.12l-265.81 295.21c-73.35,83.51 -167.01,172.21 -163.45,256.8 3.56,84.62 104.36,165.12 184.47,242.16l3824.64 3588.57c82,75.03 169.03,170.83 251.89,167.34 82.86,-3.5 161.53,-106.27 236.93,-187.93z"/>
   <path class="fil0" d="M173875.29 23438.2l-7289.94 -899.59c-100.34,-15.94 -215.3,-15.72 -316.24,21.98 -100.94,37.7 -187.89,112.91 -253.21,190.73l-311.11 345.53c-71.7,73.44 -121.43,153.77 -101.7,209.51 19.73,55.73 108.91,86.89 210.86,98.86l6805.34 1079.74c96.63,18.92 213.83,22.96 321.59,-6.99 107.76,-29.96 206.07,-93.91 279.08,-159.98l733.25 -617.14c74.33,-56.15 126.4,-125.99 111.57,-175.97 -14.83,-50 -96.56,-80.13 -189.48,-86.67z"/>
   <path class="fil0" d="M156503.47 42031.02l188.32 -209.16c79.89,-84.43 142.28,-170.93 135.81,-251.94 -6.46,-81 -81.79,-156.51 -174.04,-227.2l-4089.12 -3296.2c-88.28,-74.88 -179.11,-133.16 -264.72,-126.32 -85.6,6.83 -166.04,78.79 -241.32,166.73l-412.54 458.15c-79.82,84.34 -141.68,170.41 -133.19,248.89 8.49,78.49 87.29,149.35 183.3,214.69l4289.61 3078.34c91.85,69.53 186.44,122.88 274.22,113.39 87.78,-9.49 168.79,-81.82 243.68,-169.37z"/>
   <path class="fil0" d="M171809.18 25188.81l-6509.88 -1204.99c-100.94,-22.22 -214.42,-28.9 -314.12,4.95 -99.69,33.86 -185.64,108.25 -252.17,187.36l-362.43 402.52c-73.54,75.94 -125.88,157.29 -107.33,216.38 18.56,59.09 108.02,95.91 211.75,116.19l6073.93 1417.6c98.35,26.57 212.47,38.55 316.35,11.39 103.89,-27.16 197.53,-93.47 270.29,-164.79l757.71 -692.94c76.06,-63.53 130.27,-137.61 114.76,-191.73 -15.49,-54.11 -100.68,-88.27 -198.85,-101.93z"/>
   <path class="fil0" d="M154972.5 43731.32l297.68 -330.6c79.6,-83.98 140.66,-169.62 130.04,-245.16 -10.64,-75.54 -92.98,-140.99 -192.67,-199.72l-4526.1 -2825.25c-95.35,-63.08 -194.02,-110.39 -284.21,-97.68 -90.21,12.69 -171.98,85.4 -246.21,172.34l-559.25 621.12c-79.16,83.33 -139.29,168.56 -126.72,241.21 12.57,72.66 97.85,132.73 200.42,184.62l4765.54 2572.83c98.13,56.5 200.49,97.59 292.96,81.59 92.49,-16.01 175.07,-89.1 248.53,-175.31z"/>
   <path class="fil0" d="M176107.85 21707.07l-8237.95 -609.95c-99.53,-10.93 -215.42,-5.1 -317.23,35.8 -101.81,40.9 -189.54,116.85 -253.85,193.57l-259.8 288.55c-70,71.18 -117.38,150.45 -96.89,203.48 20.5,53.04 108.88,79.83 208.55,85.43l7682.93 771.32c37.82,5.66 76.31,8.58 114.61,8.58 182.48,0 359.19,-64.83 498.39,-182.75l730.99 -560.26c71.81,-48.42 121.43,-113.38 107.68,-159.43 -13.74,-46.04 -90.83,-73.18 -177.43,-74.34z"/>
   <path class="fil0" d="M167964.11 28832.23l-5246.22 -1942.18c-100.11,-40.53 -207.41,-66.23 -302.62,-42.79 -95.2,23.46 -178.28,96.09 -248.09,178.49l-465.06 516.51c-77.09,80.94 -135.06,164.15 -121.21,232.9 13.85,68.76 99.49,123.05 201.9,167.85l4831.39 2276.4c97.42,49.39 201.22,84.16 295.43,66.82 94.2,-17.34 178.83,-86.81 252.25,-167.67l885.95 -920.46c77.97,-75.97 135.83,-156.41 121.22,-220.26 -14.6,-63.85 -101.7,-111.12 -204.95,-145.63z"/>
  </g>
  <rect class="fil2" x="-0.01" y="0" width="205634.99" height="68544.99"/>
  <path class="fil3" d="M49111.24 18222.2l-29350.42 0c-54.64,0 -103.77,21.75 -138.62,56.6l-1.31 1.31c-34.85,34.85 -56.6,83.99 -56.6,138.62l0 6158.11c0,53.72 22.27,102.98 57.91,138.62 34.85,36.16 83.99,57.92 138.62,57.92l29546.95 0c53.72,0 102.98,-22.27 138.62,-57.92 35.64,-35.64 57.91,-84.9 57.91,-138.62l0 -5961.58c0,-216.45 -176.62,-393.07 -393.07,-393.07zm393.07 19457.02l0 -6616.7c0,-216.45 -176.62,-393.07 -393.07,-393.07l-29350.42 0c-54.64,0 -103.77,21.75 -138.62,56.6l-1.31 1.31c-34.85,34.85 -56.6,83.99 -56.6,138.62l0 19260.48c0,53.72 22.27,102.98 57.91,138.62 34.85,36.16 83.99,57.91 138.62,57.91l29546.95 0c53.72,0 102.98,-22.27 138.62,-57.91 35.64,-35.64 57.91,-84.9 57.91,-138.62l0 -5961.58c0,-216.45 -176.62,-393.07 -393.07,-393.07l-21489.01 0c-233.62,0 -446.53,-95.78 -601.27,-250.39 -154.74,-153.43 -250.39,-366.61 -250.39,-601.27l0 -4192.76c0,-233.35 95.52,-446.01 249.73,-600.61l1.31 -1.31c154.61,-154.22 367.26,-249.73 600.61,-249.73l21685.55 0c53.72,0 102.98,-22.27 138.62,-57.91 35.64,-35.64 57.91,-84.9 57.91,-138.62z"/>
  <path class="fil4" d="M62243.06 18222.2l-6770.24 0c-35.9,0 -67.74,7.34 -93.55,20.7 -26.33,14.67 -50.18,36.69 -69.7,65.64 -20.31,29.09 -31.84,59.48 -34.85,88.57 -3.14,30.14 1.97,63.02 15.33,96.3l12810.55 31707.73c15.46,38.39 40.49,69.31 71.54,90.14 30.14,20.31 68.52,31.71 111.24,31.71l8896.49 0c42.84,0 81.1,-11.4 111.24,-31.71 31.05,-20.83 56.08,-51.75 71.54,-90.14l12701.93 -31438.61c50.44,-124.86 36.82,-255.37 -38.52,-367 -75.34,-111.76 -191.16,-173.34 -325.85,-173.34l-6479.89 0c-42.71,0 -81.11,11.4 -111.24,31.71 -31.05,20.83 -56.21,51.89 -71.54,90.14l-9516.75 23554.92c-65.9,163.78 -175.05,297.03 -312.1,389.4 -137.58,92.76 -301.75,144.39 -477.06,144.39 -175.44,0 -339.48,-51.63 -477.06,-144.39 -137.05,-92.37 -246.19,-225.62 -312.1,-389.4l-9516.62 -23554.92c-15.33,-38.26 -40.49,-69.31 -71.54,-90.14 -30.14,-20.31 -68.39,-31.71 -111.24,-31.71z"/>
  <path class="fil5" d="M124934.34 18222.2l-19614.07 0c-2257.01,0 -4309.23,923.72 -5797.13,2411.49 -1487.9,1488.04 -2411.48,3540.13 -2411.48,5797.14l0 15683.54c0,2257.01 923.72,4309.24 2411.48,5797.14 1487.9,1487.77 3540.12,2411.49 5797.13,2411.49l19614.07 0c2257.01,0 4309.36,-923.72 5797.13,-2411.62 1487.9,-1487.77 2411.62,-3540 2411.62,-5797.01l0 -15683.54c0,-2257.01 -923.72,-4309.24 -2411.62,-5797.01 -1487.77,-1487.91 -3540.12,-2411.62 -5797.13,-2411.62zm-18294.4 6551.19l16974.86 0c819.03,0 1563.63,334.89 2102.93,874.19 539.29,539.29 874.19,1283.9 874.19,2102.93l0 13044.06c0,819.03 -334.9,1563.64 -874.19,2102.93 -539.29,539.29 -1283.9,874.19 -2102.93,874.19l-16974.86 0c-819.02,0 -1563.63,-334.9 -2102.92,-874.19 -539.29,-539.29 -874.19,-1283.9 -874.19,-2102.93l0 -13044.06c0,-819.03 334.89,-1563.64 874.19,-2102.93 539.29,-539.3 1283.9,-874.19 2102.92,-874.19z"/>
 </g>
</svg>
