<?xml version="1.0" encoding="UTF-8"?>
<!DOCTYPE svg PUBLIC "-//W3C//DTD SVG 1.1//EN" "http://www.w3.org/Graphics/SVG/1.1/DTD/svg11.dtd">
<!-- Creator: CorelDRAW -->
<svg xmlns="http://www.w3.org/2000/svg" xml:space="preserve" width="750mm" height="250mm" version="1.1" style="shape-rendering:geometricPrecision; text-rendering:geometricPrecision; image-rendering:optimizeQuality; fill-rule:evenodd; clip-rule:evenodd"
viewBox="0 0 8570.21 2856.74"
 xmlns:xlink="http://www.w3.org/1999/xlink"
 xmlns:xodm="http://www.corel.com/coreldraw/odm/2003">
 <defs>
  <style type="text/css">
   <![CDATA[
    .fil0 {fill:none}
    .fil5 {fill:#C8383C}
    .fil4 {fill:#D7D6D8}
    .fil1 {fill:url(#id0)}
    .fil3 {fill:url(#id1)}
    .fil2 {fill:url(#id2)}
   ]]>
  </style>
  <linearGradient id="id0" gradientUnits="userSpaceOnUse" x1="1439.27" y1="2110.93" x2="1439.27" y2="745.77">
   <stop offset="0" style="stop-opacity:0.917647; stop-color:#FEFEFE"/>
   <stop offset="0.309804" style="stop-opacity:0.835294; stop-color:#FEFEFE"/>
   <stop offset="0.560784" style="stop-opacity:0.74902; stop-color:#FEFEFE"/>
   <stop offset="0.788235" style="stop-opacity:0.87451; stop-color:#FEFEFE"/>
   <stop offset="1" style="stop-opacity:1; stop-color:#FEFEFE"/>
  </linearGradient>
  <linearGradient id="id1" gradientUnits="userSpaceOnUse" xlink:href="#id0" x1="4798.13" y1="2110.93" x2="4798.13" y2="745.77">
  </linearGradient>
  <linearGradient id="id2" gradientUnits="userSpaceOnUse" xlink:href="#id0" x1="3028.86" y1="2110.93" x2="3028.86" y2="745.76">
  </linearGradient>
 </defs>
 <g id="圖層_x0020_1">
  <metadata id="CorelCorpID_0Corel-Layer"/>
  <polygon class="fil0" points="-0,2856.74 8570.21,2856.74 8570.21,0 -0,0 "/>
  <path class="fil1" d="M2046.8 759.44l-1223.23 0c-2.28,0 -4.33,0.91 -5.78,2.36l-0.05 0.05c-1.45,1.45 -2.36,3.5 -2.36,5.78l0 256.65c0,2.24 0.93,4.29 2.41,5.78 1.45,1.51 3.5,2.41 5.78,2.41l1231.42 0c2.24,0 4.29,-0.93 5.78,-2.41 1.49,-1.48 2.41,-3.54 2.41,-5.78l0 -248.46c0,-9.02 -7.36,-16.38 -16.38,-16.38l0 0zm16.38 810.91l0 -275.76c0,-9.02 -7.36,-16.38 -16.38,-16.38l-1223.23 0c-2.28,0 -4.33,0.91 -5.78,2.36l-0.05 0.05c-1.45,1.45 -2.36,3.5 -2.36,5.78l0 802.72c0,2.24 0.93,4.29 2.41,5.78 1.45,1.51 3.5,2.41 5.78,2.41l1231.42 0c2.24,0 4.29,-0.93 5.78,-2.41 1.49,-1.49 2.41,-3.54 2.41,-5.78l0 -248.46c0,-9.02 -7.36,-16.38 -16.38,-16.38l-895.59 0c-9.74,0 -18.61,-3.99 -25.06,-10.44 -6.45,-6.39 -10.44,-15.28 -10.44,-25.06l0 -174.74c0,-9.73 3.98,-18.59 10.41,-25.03l0.05 -0.05c6.44,-6.43 15.31,-10.41 25.03,-10.41l903.78 0c2.24,0 4.29,-0.93 5.78,-2.41 1.49,-1.49 2.41,-3.54 2.41,-5.78l0 0z"/>
  <path class="fil2" d="M2594.09 759.44l-282.16 0c-1.5,0 -2.82,0.31 -3.9,0.86 -1.1,0.61 -2.09,1.53 -2.9,2.74 -0.85,1.21 -1.33,2.48 -1.45,3.69 -0.13,1.26 0.08,2.63 0.64,4.01l533.9 1321.48c0.64,1.6 1.69,2.89 2.98,3.76 1.26,0.85 2.86,1.32 4.64,1.32l370.78 0c1.78,0 3.38,-0.48 4.64,-1.32 1.29,-0.87 2.34,-2.16 2.98,-3.76l529.38 -1310.26c2.1,-5.2 1.53,-10.64 -1.61,-15.3 -3.14,-4.66 -7.97,-7.22 -13.58,-7.22l-270.06 0c-1.78,0 -3.38,0.48 -4.64,1.32 -1.29,0.87 -2.34,2.16 -2.98,3.76l-396.63 981.69c-2.75,6.83 -7.3,12.38 -13.01,16.23 -5.73,3.87 -12.58,6.02 -19.88,6.02 -7.31,0 -14.15,-2.15 -19.88,-6.02 -5.71,-3.85 -10.26,-9.4 -13.01,-16.23l-396.62 -981.69c-0.64,-1.59 -1.69,-2.89 -2.98,-3.76 -1.26,-0.85 -2.85,-1.32 -4.64,-1.32l0 0z"/>
  <path class="fil3" d="M5206.87 759.44l-817.45 0c-94.07,0 -179.6,38.5 -241.61,100.5 -62.01,62.02 -100.5,147.54 -100.5,241.61l0 653.64c0,94.07 38.5,179.6 100.5,241.61 62.01,62 147.54,100.5 241.61,100.5l817.45 0c94.06,0 179.6,-38.5 241.61,-100.51 62.01,-62.01 100.51,-147.54 100.51,-241.6l0 -653.64c0,-94.07 -38.5,-179.6 -100.51,-241.6 -62,-62.01 -147.54,-100.51 -241.61,-100.51zm-762.45 273.03l707.46 0c34.13,0 65.17,13.96 87.64,36.43 22.48,22.48 36.43,53.51 36.43,87.64l0 543.63c0,34.13 -13.96,65.17 -36.43,87.64 -22.48,22.48 -53.51,36.43 -87.64,36.43l-707.46 0c-34.13,0 -65.17,-13.96 -87.64,-36.43 -22.48,-22.48 -36.43,-53.51 -36.43,-87.64l0 -543.63c0,-34.13 13.96,-65.17 36.43,-87.64 22.48,-22.48 53.51,-36.43 87.64,-36.43z"/>
  <g id="_2262086614176">
   <path class="fil4" d="M6394.96 1848.19l16.96 -18.84c3.28,-3.44 5.74,-6.98 5.16,-9.91 -0.59,-2.93 -4.22,-5.24 -8.57,-7.16l-207.27 -98.22c-4.17,-2.12 -8.55,-3.61 -12.48,-2.82 -3.93,0.79 -7.4,3.85 -10.43,7.41l-29.42 32.68c-3.24,3.39 -5.64,6.91 -4.99,9.7 0.66,2.8 4.38,4.87 8.79,6.46l218.94 86.18c4.24,1.82 8.76,3 12.78,2.06 4.02,-0.95 7.54,-4.03 10.52,-7.55l0 0z"/>
   <path class="fil4" d="M6331.15 1919.05l21.52 -23.9c3.21,-3.35 5.57,-6.86 4.88,-9.57 -0.7,-2.72 -4.46,-4.65 -8.89,-6.03l-226.32 -78.64c-4.27,-1.63 -8.87,-2.63 -12.94,-1.58 -4.07,1.05 -7.62,4.14 -10.57,7.63l-35.54 39.47c-3.16,3.27 -5.43,6.75 -4.67,9.33 0.76,2.58 4.56,4.27 8.99,5.31l239.74 65.02c4.3,1.31 9.01,1.99 13.16,0.77 4.15,-1.22 7.75,-4.35 10.65,-7.78l0 0z"/>
   <path class="fil4" d="M6139.73 2131.64l35.19 -39.09c2.93,-2.96 4.88,-6.3 3.99,-8.49 -0.89,-2.18 -4.61,-3.22 -8.78,-3.3l-285.5 -18.84c-4.22,-0.43 -9.16,-0.14 -13.49,1.62 -4.33,1.76 -8.07,4.99 -10.8,8.25l-53.88 59.84c-2.83,2.83 -4.64,6.1 -3.73,8.15 0.91,2.05 4.55,2.88 8.55,2.68l304.13 0c4.16,0.15 9.12,-0.46 13.5,-2.41 4.37,-1.95 8.15,-5.23 10.82,-8.42l0 0z"/>
   <path class="fil4" d="M6842.23 1323.25l-169.52 -125.51c-3.72,-2.9 -7.54,-5.13 -11.11,-4.78 -3.56,0.36 -6.87,3.31 -9.93,6.89l-23.66 26.28c-3.25,3.43 -5.83,7.01 -5.76,10.53 0.08,3.52 2.81,6.98 6.21,10.27l147.21 149.86c3.24,3.47 6.61,6.23 9.93,6.16 3.31,-0.07 6.56,-2.96 9.66,-6.56l48.87 -54.05c3.27,-3.44 5.81,-6.96 5.49,-10.19 -0.32,-3.23 -3.5,-6.18 -7.39,-8.91l0 0z"/>
   <path class="fil4" d="M6921.99 1237.29l-194.61 -100.86c-4.03,-2.24 -8.26,-3.84 -12.06,-3.15 -3.8,0.69 -7.19,3.68 -10.18,7.2l-21.52 23.9c-3.26,3.44 -5.77,6.95 -5.39,10.11 0.38,3.16 3.67,5.96 7.66,8.52l175.75 119.07c3.81,2.73 7.75,4.81 11.41,4.39 3.65,-0.42 7.02,-3.34 10.11,-6.87l41.82 -45.24c3.27,-3.35 5.75,-6.79 5.24,-9.71 -0.51,-2.92 -4.01,-5.31 -8.22,-7.35l0 -0z"/>
   <path class="fil4" d="M6798.83 1055.98l226.44 75.34c4.13,1.52 8.71,2.44 12.85,1.48 4.14,-0.96 7.85,-3.8 10.89,-6.98l33.63 -33.01c3.22,-2.93 5.56,-6.16 4.91,-8.61 -0.65,-2.44 -4.28,-4.1 -8.52,-5.05l-243.58 -64.41c-4.21,-1.26 -8.84,-1.89 -12.92,-0.68 -4.08,1.22 -7.61,4.28 -10.44,7.64l-17.24 19.15c-3.14,3.27 -5.44,6.7 -4.74,9.34 0.7,2.64 4.39,4.49 8.74,5.78l0 0z"/>
   <path class="fil4" d="M6203.54 2060.78l30.64 -34.03c3.03,-3.1 5.13,-6.51 4.28,-8.86 -0.85,-2.35 -4.63,-3.63 -8.95,-4.09l-265.5 -39c-4.28,-0.78 -9.14,-0.88 -13.41,0.66 -4.27,1.54 -7.95,4.72 -10.75,8.05l-47.77 53.05c-2.94,2.99 -4.92,6.34 -4.03,8.54 0.88,2.21 4.62,3.28 8.81,3.41l278.91 21.68 3.5 0.27c4.23,0.48 9.16,0.25 13.48,-1.48 4.33,-1.73 8.05,-4.95 10.79,-8.22l0 0z"/>
   <path class="fil4" d="M7442.26 787.26l-392.48 -13.21c-4.11,-0.29 -8.97,0.15 -13.24,1.97 -4.27,1.81 -7.95,5.01 -10.6,8.17l-8.69 9.65c-2.85,2.88 -4.74,6.14 -3.87,8.26 0.88,2.12 4.51,3.09 8.57,3.12l365.54 19.63c1.09,0.09 2.21,0.14 3.31,0.14 8.17,0 16.14,-2.64 22.7,-7.5l31.27 -21.62c2.85,-1.69 4.8,-4.17 4.28,-5.93 -0.52,-1.76 -3.5,-2.79 -6.81,-2.67l0 -0z"/>
   <path class="fil4" d="M7557.85 714.18l-454.59 0c-4.08,-0.15 -8.95,0.45 -13.23,2.36 -4.29,1.91 -7.99,5.13 -10.61,8.25l-6.55 7.27c-2.8,2.81 -4.61,6.03 -3.72,8.07 0.89,2.04 4.48,2.9 8.44,2.77l422.91 6.52c0.56,0.02 1.13,0.03 1.7,0.03 8.78,0 17.37,-2.54 24.73,-7.32l33.05 -20.44c2.66,-1.37 4.47,-3.61 4.02,-5.2 -0.45,-1.59 -3.17,-2.54 -6.16,-2.31l0 0z"/>
   <path class="fil5" d="M5844.73 714.18l236.92 0c8.15,-0.29 17.89,0.9 26.47,4.72 8.57,3.82 15.98,10.25 21.21,16.51l1247.8 1385.83c2.6,2.84 5.07,5.76 6.48,8.53 1.41,2.77 1.75,5.39 0.83,7.45 -0.92,2.06 -3.09,3.56 -6.09,4.36 -3,0.81 -6.82,0.92 -10.68,0.89l-236.92 0c-8.15,0.29 -17.89,-0.9 -26.46,-4.72 -8.57,-3.82 -15.98,-10.25 -21.22,-16.51l-1247.8 -1385.83c-2.6,-2.84 -5.07,-5.76 -6.48,-8.53 -1.41,-2.77 -1.75,-5.39 -0.83,-7.45 0.92,-2.06 3.09,-3.56 6.09,-4.36 3,-0.81 6.82,-0.92 10.68,-0.89l-0 -0z"/>
   <path class="fil4" d="M6267.34 1989.91l26.08 -28.96c3.13,-3.24 5.37,-6.7 4.58,-9.22 -0.78,-2.52 -4.59,-4.11 -9,-5l-245.75 -58.93c-4.3,-1.18 -9.05,-1.72 -13.24,-0.42 -4.19,1.3 -7.8,4.44 -10.67,7.84l-41.65 46.26c-3.06,3.14 -5.19,6.56 -4.35,8.94 0.83,2.39 4.63,3.74 8.97,4.29l260.92 43.62c4.29,0.87 9.13,1.07 13.38,-0.42 4.25,-1.49 7.92,-4.66 10.73,-8.01l0 0z"/>
   <path class="fil4" d="M6586.37 1635.6l3.29 -3.66c3.31,-3.5 5.95,-7.15 5.88,-10.75 -0.07,-3.6 -2.84,-7.15 -6.28,-10.53l-152.57 -157.23c-3.26,-3.28 -6.71,-7.45 -10.09,-7.39 -3.37,0.06 -6.67,4.36 -9.81,7.76l-11.08 12.3c-3.06,3.48 -6.96,7.18 -6.81,10.7 0.15,3.53 4.35,6.88 7.69,10.09l159.4 149.56c3.42,3.13 7.04,7.12 10.5,6.97 3.45,-0.15 6.73,-4.43 9.87,-7.83l0 0z"/>
   <path class="fil4" d="M7246.57 931.57l-303.82 -37.49c-4.18,-0.66 -8.97,-0.65 -13.18,0.92 -4.21,1.57 -7.83,4.71 -10.55,7.95l-12.97 14.4c-2.99,3.06 -5.06,6.41 -4.24,8.73 0.82,2.32 4.54,3.62 8.79,4.12l283.62 45c4.03,0.79 8.91,0.96 13.4,-0.29 4.49,-1.25 8.59,-3.91 11.63,-6.67l30.56 -25.72c3.1,-2.34 5.27,-5.25 4.65,-7.33 -0.62,-2.08 -4.02,-3.34 -7.9,-3.61l0 0z"/>
   <path class="fil4" d="M6522.57 1706.46l7.85 -8.72c3.33,-3.52 5.93,-7.12 5.66,-10.5 -0.27,-3.38 -3.41,-6.52 -7.25,-9.47l-170.42 -137.37c-3.68,-3.12 -7.47,-5.55 -11.03,-5.27 -3.57,0.28 -6.92,3.28 -10.06,6.95l-17.19 19.09c-3.33,3.51 -5.91,7.1 -5.55,10.37 0.35,3.27 3.64,6.22 7.64,8.95l178.78 128.29c3.83,2.9 7.77,5.12 11.43,4.73 3.66,-0.4 7.03,-3.41 10.16,-7.06l0 0z"/>
   <path class="fil4" d="M7160.46 1004.53l-271.31 -50.22c-4.21,-0.93 -8.94,-1.2 -13.09,0.21 -4.15,1.41 -7.74,4.51 -10.51,7.81l-15.11 16.78c-3.06,3.17 -5.25,6.56 -4.47,9.02 0.77,2.46 4.5,4 8.83,4.84l253.14 59.08c4.1,1.11 8.86,1.61 13.18,0.47 4.33,-1.13 8.23,-3.9 11.27,-6.87l31.58 -28.88c3.17,-2.65 5.43,-5.74 4.78,-7.99 -0.65,-2.26 -4.2,-3.68 -8.29,-4.25l0 0z"/>
   <path class="fil4" d="M6458.76 1777.32l12.41 -13.78c3.32,-3.5 5.86,-7.07 5.42,-10.22 -0.44,-3.15 -3.87,-5.88 -8.03,-8.32l-188.63 -117.75c-3.97,-2.63 -8.09,-4.6 -11.85,-4.07 -3.76,0.53 -7.17,3.56 -10.26,7.18l-23.31 25.89c-3.3,3.47 -5.8,7.03 -5.28,10.05 0.52,3.03 4.08,5.53 8.35,7.69l198.61 107.23c4.09,2.36 8.36,4.07 12.21,3.4 3.85,-0.67 7.3,-3.71 10.36,-7.31l0 0z"/>
   <path class="fil4" d="M7339.62 859.42l-343.33 -25.42c-4.15,-0.46 -8.98,-0.21 -13.22,1.49 -4.24,1.7 -7.9,4.87 -10.58,8.07l-10.83 12.03c-2.92,2.97 -4.89,6.27 -4.04,8.48 0.85,2.21 4.54,3.33 8.69,3.56l320.2 32.15c1.58,0.24 3.18,0.36 4.78,0.36 7.61,0 14.97,-2.7 20.77,-7.62l30.47 -23.35c2.99,-2.02 5.06,-4.73 4.49,-6.64 -0.57,-1.92 -3.79,-3.05 -7.39,-3.1z"/>
   <path class="fil4" d="M7000.21 1156.38l-218.65 -80.94c-4.17,-1.69 -8.64,-2.76 -12.61,-1.78 -3.97,0.98 -7.43,4 -10.34,7.44l-19.38 21.53c-3.21,3.37 -5.63,6.84 -5.05,9.71 0.58,2.87 4.15,5.13 8.41,7l201.36 94.87c4.06,2.06 8.39,3.51 12.31,2.78 3.93,-0.72 7.45,-3.62 10.51,-6.99l36.92 -38.36c3.25,-3.17 5.66,-6.52 5.05,-9.18 -0.61,-2.66 -4.24,-4.63 -8.54,-6.07l0 0z"/>
  </g>
 </g>
</svg>
